<?xml version="1.0" encoding="UTF-8" standalone="no"?>
<!-- Created with Inkscape (http://www.inkscape.org/) -->

<svg
   xmlns:dc="http://purl.org/dc/elements/1.1/"
   xmlns:cc="http://creativecommons.org/ns#"
   xmlns:rdf="http://www.w3.org/1999/02/22-rdf-syntax-ns#"
   xmlns:svg="http://www.w3.org/2000/svg"
   xmlns="http://www.w3.org/2000/svg"
   xmlns:xlink="http://www.w3.org/1999/xlink"
   xmlns:sodipodi="http://sodipodi.sourceforge.net/DTD/sodipodi-0.dtd"
   xmlns:inkscape="http://www.inkscape.org/namespaces/inkscape"
   width="723.27094"
   height="366.77902"
   id="svg2"
   version="1.1"
   inkscape:version="0.48.4 r9939"
   sodipodi:docname="matrix.svg">
  <defs
     id="defs4" />
  <sodipodi:namedview
     id="base"
     pagecolor="#ffffff"
     bordercolor="#666666"
     borderopacity="1.0"
     inkscape:pageopacity="0.0"
     inkscape:pageshadow="2"
     inkscape:zoom="1.4"
     inkscape:cx="421.23633"
     inkscape:cy="140.15357"
     inkscape:document-units="px"
     inkscape:current-layer="layer1"
     showgrid="false"
     showguides="true"
     inkscape:guide-bbox="true"
     inkscape:window-width="1920"
     inkscape:window-height="1025"
     inkscape:window-x="0"
     inkscape:window-y="27"
     inkscape:window-maximized="1"
     fit-margin-top="0.2"
     fit-margin-left="0.2"
     fit-margin-right="0.2"
     fit-margin-bottom="0.2"
     units="in" />
  <metadata
     id="metadata7">
    <rdf:RDF>
      <cc:Work
         rdf:about="">
        <dc:format>image/svg+xml</dc:format>
        <dc:type
           rdf:resource="http://purl.org/dc/dcmitype/StillImage" />
        <dc:title></dc:title>
      </cc:Work>
    </rdf:RDF>
  </metadata>
  <g
     inkscape:label="Layer 1"
     inkscape:groupmode="layer"
     id="layer1"
     transform="translate(72.895212,-687.28296)">
    <g
       style="font-size:40px;font-style:normal;font-weight:normal;line-height:125%;letter-spacing:0px;word-spacing:0px;fill:#000000;fill-opacity:1;stroke:none;font-family:Sans"
       id="text3787"
       transform="matrix(1.96,0,0,1.96,-277.19065,-835.84556)">
      <path
         d="m 147.93948,945.49237 c -11.39066,-5.10939 -19.99222,-13.19532 -25.80469,-24.25781 -5.81252,-11.10936 -8.71876,-24.98435 -8.71875,-41.625 -10e-6,-16.68744 2.90623,-30.56243 8.71875,-41.625 5.81247,-11.10928 14.41403,-19.21865 25.80469,-24.32813 l 0,6.89063 c -7.21879,4.96885 -12.39848,11.97665 -15.53907,21.02344 -3.14065,9.00007 -4.71096,21.67974 -4.71093,38.03906 -3e-5,16.31253 1.57028,28.9922 4.71093,38.03906 3.14059,9 8.32028,15.98437 15.53907,20.95313 l 0,6.89062"
         style="fill:#cccccc"
         id="path4242"
         inkscape:connector-curvature="0" />
      <path
         d="m 205.94729,878.133 -25.66406,37.47656 13.57031,0 0,7.45312 -34.73438,0 0,-7.45312 12.09375,0 30.23438,-44.08594 -30.65625,-45.91406 -11.25,0 0,-7.52344 41.625,0 0,7.52344 -12.375,0 22.5,33.82031 23.13281,-33.82031 -13.5,0 0,-7.52344 34.38281,0 0,7.52344 -11.8125,0 -27.77343,40.42969 33.11718,49.57031 11.25,0 0,7.45312 -41.625,0 0,-7.45312 12.51563,0 -25.03125,-37.47656"
         style="fill:#e6e6e6"
         id="path4244"
         inkscape:connector-curvature="0" />
      <path
         d="m 271.12698,945.49237 0,-6.89062 c 7.21873,-4.96876 12.39841,-11.95313 15.53906,-20.95313 3.18747,-9.04686 4.78122,-21.72653 4.78125,-38.03906 -3e-5,-16.35932 -1.59378,-29.03899 -4.78125,-38.03906 -3.14065,-9.04679 -8.32033,-16.05459 -15.53906,-21.02344 l 0,-6.89063 c 11.43747,5.10948 20.06247,13.21885 25.875,24.32813 5.81245,11.06257 8.7187,24.93756 8.71875,41.625 -5e-5,16.64065 -2.9063,30.51564 -8.71875,41.625 -5.81253,11.06249 -14.43753,19.14842 -25.875,24.25781"
         style="fill:#cccccc"
         id="path4246"
         inkscape:connector-curvature="0" />
      <path
         d="m 410.17498,936.77362 4.92188,-12.44531 -27.91407,-68.48438 -8.50781,0 0,-7.52343 34.38281,0 0,7.52343 -11.95312,0 21.02344,51.39844 21.02343,-51.39844 -11.17968,0 0,-7.52343 28.05468,0 0,7.52343 -8.36718,0 -34.24219,84.09375 c -2.34379,5.81248 -4.94535,9.77341 -7.80469,11.88282 -2.8594,2.15621 -6.89065,3.23434 -12.09375,3.23437 -2.20314,-3e-5 -4.47658,-0.18753 -6.82031,-0.5625 -2.29689,-0.37503 -4.6172,-0.91409 -6.96094,-1.61719 l 0,-14.27343 6.60938,0 c 0.28123,3.18748 1.07811,5.46091 2.39062,6.82031 1.35936,1.40622 3.4453,2.10935 6.25781,2.10937 2.57811,-2e-5 4.6406,-0.72658 6.1875,-2.17968 1.59372,-1.40628 3.25779,-4.26565 4.99219,-8.57813"
         style="fill:#e6e6e6"
         id="path4252"
         inkscape:connector-curvature="0" />
      <path
         d="m 408.93948,945.49237 c -11.39066,-5.10939 -19.99222,-13.19532 -25.80469,-24.25781 -5.81252,-11.10936 -8.71876,-24.98435 -8.71875,-41.625 -1e-5,-16.68744 2.90623,-30.56243 8.71875,-41.625 5.81247,-11.10928 14.41403,-19.21865 25.80469,-24.32813 l 0,6.89063 c -7.21879,4.96885 -12.39848,11.97665 -15.53907,21.02344 -3.14065,9.00007 -4.71096,21.67974 -4.71093,38.03906 -3e-5,16.31253 1.57028,28.9922 4.71093,38.03906 3.14059,9 8.32028,15.98437 15.53907,20.95313 l 0,6.89062"
         style="fill:#cccccc"
         id="path4248"
         inkscape:connector-curvature="0" />
      <path
         d="m 429.47073,945.49237 0,-6.89062 c 7.21873,-4.96876 12.39841,-11.95313 15.53906,-20.95313 3.18747,-9.04686 4.78122,-21.72653 4.78125,-38.03906 -3e-5,-16.35932 -1.59378,-29.03899 -4.78125,-38.03906 -3.14065,-9.04679 -8.32033,-16.05459 -15.53906,-21.02344 l 0,-6.89063 c 11.43747,5.10948 20.06247,13.21885 25.875,24.32813 5.81245,11.06257 8.7187,24.93756 8.71875,41.625 -5e-5,16.64065 -2.9063,30.51564 -8.71875,41.625 -5.81253,11.06249 -14.43753,19.14842 -25.875,24.25781"
         style="fill:#cccccc"
         id="path4250"
         inkscape:connector-curvature="0" />
    </g>
    <text
       xml:space="preserve"
       style="font-size:23.51999855px;font-style:normal;font-variant:normal;font-weight:normal;font-stretch:normal;line-height:125%;letter-spacing:0px;word-spacing:0px;fill:#000000;fill-opacity:1;stroke:none;font-family:Sans;-inkscape-font-specification:Sans"
       x="-61.38166"
       y="775.36737"
       id="text3791"
       sodipodi:linespacing="125%"><tspan
         sodipodi:role="line"
         id="tspan3793"
         x="-61.38166"
         y="775.36737" /></text>
    <rect
       style="fill:#000000;fill-opacity:1"
       id="rect3817"
       width="11.55"
       height="11.55"
       x="24.859352"
       y="782.28436"
       inkscape:tile-cx="157.05358"
       inkscape:tile-cy="828.52291"
       inkscape:tile-w="5.8928571"
       inkscape:tile-h="5.8928571"
       inkscape:tile-x0="154.10715"
       inkscape:tile-y0="825.57648" />
    <use
       x="0"
       y="0"
       inkscape:tiled-clone-of="#rect3817"
       xlink:href="#rect3817"
       transform="translate(41.299999,31.185)"
       id="use3893"
       width="744.09448"
       height="1052.3622" />
    <use
       x="0"
       y="0"
       inkscape:tiled-clone-of="#rect3817"
       xlink:href="#rect3817"
       transform="translate(82.599997,31.185)"
       id="use3895"
       width="744.09448"
       height="1052.3622" />
    <use
       x="0"
       y="0"
       inkscape:tiled-clone-of="#rect3817"
       xlink:href="#rect3817"
       transform="translate(165.2,31.185)"
       id="use3897"
       width="744.09448"
       height="1052.3622" />
    <use
       x="0"
       y="0"
       inkscape:tiled-clone-of="#rect3817"
       xlink:href="#rect3817"
       transform="translate(165.2,93.555)"
       id="use3899"
       width="744.09448"
       height="1052.3622" />
    <use
       x="0"
       y="0"
       inkscape:tiled-clone-of="#rect3817"
       xlink:href="#rect3817"
       transform="translate(206.5,155.925)"
       id="use3901"
       width="744.09448"
       height="1052.3622" />
    <use
       x="0"
       y="0"
       inkscape:tiled-clone-of="#rect3817"
       xlink:href="#rect3817"
       transform="translate(41.299999,0)"
       id="use3903"
       width="744.09448"
       height="1052.3622" />
    <use
       x="0"
       y="0"
       inkscape:tiled-clone-of="#rect3817"
       xlink:href="#rect3817"
       transform="translate(123.9,31.185)"
       id="use3905"
       width="744.09448"
       height="1052.3622" />
    <use
       x="0"
       y="0"
       inkscape:tiled-clone-of="#rect3817"
       xlink:href="#rect3817"
       transform="translate(206.5,31.185)"
       id="use3907"
       width="744.09448"
       height="1052.3622" />
    <use
       x="0"
       y="0"
       inkscape:tiled-clone-of="#rect3817"
       xlink:href="#rect3817"
       transform="translate(206.5,93.554999)"
       id="use3909"
       width="744.09448"
       height="1052.3622" />
    <use
       x="0"
       y="0"
       inkscape:tiled-clone-of="#rect3817"
       xlink:href="#rect3817"
       transform="translate(0,124.74)"
       id="use3911"
       width="744.09448"
       height="1052.3622" />
    <use
       x="0"
       y="0"
       inkscape:tiled-clone-of="#rect3817"
       xlink:href="#rect3817"
       transform="translate(0,187.11)"
       id="use3913"
       width="744.09448"
       height="1052.3622" />
    <use
       x="0"
       y="0"
       inkscape:tiled-clone-of="#rect3817"
       xlink:href="#rect3817"
       transform="translate(82.599997,0)"
       id="use3915"
       width="744.09448"
       height="1052.3622" />
    <use
       x="0"
       y="0"
       inkscape:tiled-clone-of="#rect3817"
       xlink:href="#rect3817"
       transform="translate(0,62.369999)"
       id="use3917"
       width="744.09448"
       height="1052.3622" />
    <use
       x="0"
       y="0"
       inkscape:tiled-clone-of="#rect3817"
       xlink:href="#rect3817"
       transform="translate(41.299999,62.369999)"
       id="use3919"
       width="744.09448"
       height="1052.3622" />
    <use
       x="0"
       y="0"
       inkscape:tiled-clone-of="#rect3817"
       xlink:href="#rect3817"
       transform="translate(41.299999,124.74)"
       id="use3921"
       width="744.09448"
       height="1052.3622" />
    <use
       x="0"
       y="0"
       inkscape:tiled-clone-of="#rect3817"
       xlink:href="#rect3817"
       transform="translate(82.599997,124.74)"
       id="use3923"
       width="744.09448"
       height="1052.3622" />
    <use
       x="0"
       y="0"
       inkscape:tiled-clone-of="#rect3817"
       xlink:href="#rect3817"
       transform="translate(41.299999,187.11)"
       id="use3925"
       width="744.09448"
       height="1052.3622" />
    <use
       x="0"
       y="0"
       inkscape:tiled-clone-of="#rect3817"
       xlink:href="#rect3817"
       transform="translate(123.9,0)"
       id="use3927"
       width="744.09448"
       height="1052.3622" />
    <use
       x="0"
       y="0"
       inkscape:tiled-clone-of="#rect3817"
       xlink:href="#rect3817"
       transform="translate(82.599997,62.369999)"
       id="use3929"
       width="744.09448"
       height="1052.3622" />
    <use
       x="0"
       y="0"
       inkscape:tiled-clone-of="#rect3817"
       xlink:href="#rect3817"
       transform="translate(123.9,62.369999)"
       id="use3931"
       width="744.09448"
       height="1052.3622" />
    <use
       x="0"
       y="0"
       inkscape:tiled-clone-of="#rect3817"
       xlink:href="#rect3817"
       transform="translate(123.9,124.74)"
       id="use3933"
       width="744.09448"
       height="1052.3622" />
    <use
       x="0"
       y="0"
       inkscape:tiled-clone-of="#rect3817"
       xlink:href="#rect3817"
       transform="translate(165.2,124.74)"
       id="use3935"
       width="744.09448"
       height="1052.3622" />
    <use
       x="0"
       y="0"
       inkscape:tiled-clone-of="#rect3817"
       xlink:href="#rect3817"
       transform="translate(82.599997,187.11)"
       id="use3937"
       width="744.09448"
       height="1052.3622" />
    <use
       x="0"
       y="0"
       inkscape:tiled-clone-of="#rect3817"
       xlink:href="#rect3817"
       transform="translate(165.2,0)"
       id="use3939"
       width="744.09448"
       height="1052.3622" />
    <use
       x="0"
       y="0"
       inkscape:tiled-clone-of="#rect3817"
       xlink:href="#rect3817"
       transform="translate(165.2,62.369999)"
       id="use3941"
       width="744.09448"
       height="1052.3622" />
    <use
       x="0"
       y="0"
       inkscape:tiled-clone-of="#rect3817"
       xlink:href="#rect3817"
       transform="translate(206.5,62.369999)"
       id="use3943"
       width="744.09448"
       height="1052.3622" />
    <use
       x="0"
       y="0"
       inkscape:tiled-clone-of="#rect3817"
       xlink:href="#rect3817"
       transform="translate(206.5,124.74)"
       id="use3945"
       width="744.09448"
       height="1052.3622" />
    <use
       x="0"
       y="0"
       inkscape:tiled-clone-of="#rect3817"
       xlink:href="#rect3817"
       transform="translate(0,155.925)"
       id="use3947"
       width="744.09448"
       height="1052.3622" />
    <use
       x="0"
       y="0"
       inkscape:tiled-clone-of="#rect3817"
       xlink:href="#rect3817"
       transform="translate(123.9,187.11)"
       id="use3949"
       width="744.09448"
       height="1052.3622" />
    <use
       x="0"
       y="0"
       inkscape:tiled-clone-of="#rect3817"
       xlink:href="#rect3817"
       transform="translate(206.5,0)"
       id="use3951"
       width="744.09448"
       height="1052.3622" />
    <use
       x="0"
       y="0"
       inkscape:tiled-clone-of="#rect3817"
       xlink:href="#rect3817"
       transform="translate(0,93.554999)"
       id="use3953"
       width="744.09448"
       height="1052.3622" />
    <use
       x="0"
       y="0"
       inkscape:tiled-clone-of="#rect3817"
       xlink:href="#rect3817"
       transform="translate(41.299999,93.555)"
       id="use3955"
       width="744.09448"
       height="1052.3622" />
    <use
       x="0"
       y="0"
       inkscape:tiled-clone-of="#rect3817"
       xlink:href="#rect3817"
       transform="translate(41.299999,155.925)"
       id="use3957"
       width="744.09448"
       height="1052.3622" />
    <use
       x="0"
       y="0"
       inkscape:tiled-clone-of="#rect3817"
       xlink:href="#rect3817"
       transform="translate(82.599997,155.925)"
       id="use3959"
       width="744.09448"
       height="1052.3622" />
    <use
       x="0"
       y="0"
       inkscape:tiled-clone-of="#rect3817"
       xlink:href="#rect3817"
       transform="translate(165.2,187.11)"
       id="use3961"
       width="744.09448"
       height="1052.3622" />
    <use
       x="0"
       y="0"
       inkscape:tiled-clone-of="#rect3817"
       xlink:href="#rect3817"
       id="use3963"
       width="744.09448"
       height="1052.3622"
       transform="translate(0,31.185)" />
    <use
       x="0"
       y="0"
       inkscape:tiled-clone-of="#rect3817"
       xlink:href="#rect3817"
       transform="translate(82.599997,93.554999)"
       id="use3965"
       width="744.09448"
       height="1052.3622" />
    <use
       x="0"
       y="0"
       inkscape:tiled-clone-of="#rect3817"
       xlink:href="#rect3817"
       transform="translate(123.9,93.555)"
       id="use3967"
       width="744.09448"
       height="1052.3622" />
    <use
       x="0"
       y="0"
       inkscape:tiled-clone-of="#rect3817"
       xlink:href="#rect3817"
       transform="translate(123.9,155.925)"
       id="use3969"
       width="744.09448"
       height="1052.3622" />
    <use
       x="0"
       y="0"
       inkscape:tiled-clone-of="#rect3817"
       xlink:href="#rect3817"
       transform="translate(165.2,155.925)"
       id="use3971"
       width="744.09448"
       height="1052.3622" />
    <use
       x="0"
       y="0"
       inkscape:tiled-clone-of="#rect3817"
       xlink:href="#rect3817"
       transform="translate(206.5,187.11)"
       id="use3973"
       width="744.09448"
       height="1052.3622" />
    <use
       height="1052.3622"
       width="744.09448"
       id="use4047"
       transform="translate(520.1,155.925)"
       xlink:href="#rect3817"
       inkscape:tiled-clone-of="#rect3817"
       y="0"
       x="0" />
    <use
       height="1052.3622"
       width="744.09448"
       id="use4049"
       transform="translate(520.1,31.185)"
       xlink:href="#rect3817"
       inkscape:tiled-clone-of="#rect3817"
       y="0"
       x="0" />
    <use
       height="1052.3622"
       width="744.09448"
       id="use4051"
       transform="translate(520.1,93.554999)"
       xlink:href="#rect3817"
       inkscape:tiled-clone-of="#rect3817"
       y="0"
       x="0" />
    <use
       height="1052.3622"
       width="744.09448"
       id="use4053"
       transform="translate(520.1,62.369999)"
       xlink:href="#rect3817"
       inkscape:tiled-clone-of="#rect3817"
       y="0"
       x="0" />
    <use
       height="1052.3622"
       width="744.09448"
       id="use4055"
       transform="translate(520.1,124.74)"
       xlink:href="#rect3817"
       inkscape:tiled-clone-of="#rect3817"
       y="0"
       x="0" />
    <use
       height="1052.3622"
       width="744.09448"
       id="use4057"
       transform="translate(520.1,0)"
       xlink:href="#rect3817"
       inkscape:tiled-clone-of="#rect3817"
       y="0"
       x="0" />
    <use
       height="1052.3622"
       width="744.09448"
       id="use4059"
       transform="translate(520.1,187.11)"
       xlink:href="#rect3817"
       inkscape:tiled-clone-of="#rect3817"
       y="0"
       x="0" />
    <g
       id="g4218"
       transform="matrix(1.96,0,0,1.96,-277.19065,-835.84556)">
      <rect
         ry="0"
         y="878.9693"
         x="323.21429"
         height="11.071428"
         width="24.464287"
         id="rect4214"
         style="fill:#cccccc;fill-opacity:1" />
      <path
         transform="translate(-20,2.1428308)"
         inkscape:transform-center-x="-3.7393556"
         d="m 357.69985,895.31569 0,-12.95351 0,-12.95351 11.21806,6.47676 11.21807,6.47675 -11.21807,6.47676 z"
         inkscape:randomized="0"
         inkscape:rounded="0"
         inkscape:flatsided="false"
         sodipodi:arg2="3.1415927"
         sodipodi:arg1="2.0943951"
         sodipodi:r2="7.4787111"
         sodipodi:r1="14.957423"
         sodipodi:cy="882.36218"
         sodipodi:cx="365.17856"
         sodipodi:sides="3"
         id="path4216"
         style="fill:#cccccc;fill-opacity:1"
         sodipodi:type="star" />
    </g>
  </g>
  <g
     inkscape:groupmode="layer"
     id="layer3"
     inkscape:label="highlights"
     transform="translate(72.895212,-687.28296)">
    <rect
       style="fill:#007fff;fill-opacity:0.42465754"
       id="rect4062"
       width="597.88721"
       height="32.668381"
       x="-19.404774"
       y="833.27942"
       ry="9.8000002" />
    <text
       xml:space="preserve"
       style="font-size:78.40000153px;font-style:normal;font-variant:normal;font-weight:normal;font-stretch:normal;line-height:125%;letter-spacing:0px;word-spacing:0px;fill:#000000;fill-opacity:1;stroke:none;font-family:Serif;-inkscape-font-specification:Serif"
       x="0.5647617"
       y="858.52313"
       id="text4064"
       sodipodi:linespacing="125%"><tspan
         sodipodi:role="line"
         id="tspan4066"
         x="0.5647617"
         y="858.52313"
         style="font-size:23.51999855px;font-style:italic;-inkscape-font-specification:Serif Italic">j</tspan></text>
    <rect
       style="fill:#ff7f00;fill-opacity:0.42465754"
       id="rect4062-6"
       width="266.08728"
       height="32.66832"
       x="-995.47791"
       y="138.37515"
       ry="9.8000002"
       transform="matrix(0,-1,1,0,0,0)" />
    <text
       xml:space="preserve"
       style="font-size:78.40000153px;font-style:normal;font-variant:normal;font-weight:normal;font-stretch:normal;line-height:125%;letter-spacing:0px;word-spacing:0px;fill:#000000;fill-opacity:1;stroke:none;font-family:Serif;-inkscape-font-specification:Serif"
       x="151.28867"
       y="761.58502"
       id="text4064-5"
       sodipodi:linespacing="125%"><tspan
         sodipodi:role="line"
         id="tspan4066-3"
         x="151.28867"
         y="761.58502"
         style="font-size:23.51999855px;font-style:italic;-inkscape-font-specification:Serif Italic">i</tspan></text>
    <text
       xml:space="preserve"
       style="font-size:78.40000153px;font-style:normal;font-variant:normal;font-weight:normal;font-stretch:normal;line-height:125%;letter-spacing:0px;word-spacing:0px;fill:#007fff;fill-opacity:1;stroke:none;font-family:Serif;-inkscape-font-specification:Serif"
       x="-920.11725"
       y="-30.407045"
       id="text3795-5"
       sodipodi:linespacing="125%"
       transform="matrix(0,-1,1,0,0,0)"><tspan
         sodipodi:role="line"
         id="tspan3797-8"
         x="-920.11725"
         y="-30.407045"
         style="font-size:23.51999855px;font-style:normal;font-variant:normal;font-weight:normal;font-stretch:normal;fill:#007fff;fill-opacity:1;font-family:Sans;-inkscape-font-specification:Sans">observation</tspan></text>
    <text
       xml:space="preserve"
       style="font-size:78.40000153px;font-style:normal;font-variant:normal;font-weight:normal;font-stretch:normal;line-height:125%;letter-spacing:0px;word-spacing:0px;fill:#ff7f00;fill-opacity:1;stroke:none;font-family:Serif;-inkscape-font-specification:Serif"
       x="111.39877"
       y="723.15265"
       id="text3795-5-5"
       sodipodi:linespacing="125%"><tspan
         sodipodi:role="line"
         id="tspan3797-8-5"
         x="111.39877"
         y="723.15265"
         style="font-size:23.51999855px;font-style:normal;font-variant:normal;font-weight:normal;font-stretch:normal;fill:#ff7f00;fill-opacity:1;font-family:Sans;-inkscape-font-specification:Sans">feature</tspan></text>
    <text
       xml:space="preserve"
       style="font-size:78.40000153px;font-style:normal;font-variant:normal;font-weight:normal;font-stretch:normal;line-height:125%;letter-spacing:0px;word-spacing:0px;fill:#000000;fill-opacity:1;stroke:none;font-family:Serif;-inkscape-font-specification:Serif"
       x="526.27313"
       y="723.15265"
       id="text3795-5-5-4"
       sodipodi:linespacing="125%"><tspan
         sodipodi:role="line"
         id="tspan3797-8-5-1"
         x="526.27313"
         y="723.15265"
         style="font-size:23.51999855px;font-style:normal;font-variant:normal;font-weight:normal;font-stretch:normal;fill:#000000;fill-opacity:1;font-family:Sans;-inkscape-font-specification:Sans">label</tspan></text>
  </g>
</svg>
